<?xml version="1.0" standalone="no"?>
<!DOCTYPE svg PUBLIC "-//W3C//DTD SVG 20010904//EN"
 "http://www.w3.org/TR/2001/REC-SVG-20010904/DTD/svg10.dtd">
<svg version="1.0" xmlns="http://www.w3.org/2000/svg"
 width="500.000000pt" height="500.000000pt" viewBox="0 0 500.000000 500.000000"
 preserveAspectRatio="xMidYMid meet">

<g transform="translate(0.000000,500.000000) scale(0.100000,-0.100000)"
fill="#000000" stroke="none">
<path d="M2436 3675 c-25 -19 -54 -43 -65 -54 -10 -10 -43 -37 -72 -60 -30
-23 -77 -60 -105 -84 -224 -186 -432 -356 -459 -377 -27 -21 -98 -80 -180
-148 -11 -9 -42 -35 -70 -57 -134 -106 -223 -188 -218 -201 9 -23 30 -16 90
30 l58 44 5 -228 c3 -126 8 -232 12 -235 4 -4 14 -5 23 -2 13 6 15 39 15 246
0 155 -4 242 -10 246 -6 4 6 20 27 36 43 34 32 25 183 149 63 52 117 97 120
100 3 3 21 17 40 32 19 15 47 37 62 50 14 13 65 55 113 93 48 39 120 97 159
131 183 155 335 273 341 263 4 -5 31 -29 60 -52 69 -56 287 -239 300 -252 6
-6 26 -23 45 -37 19 -14 46 -36 60 -49 14 -14 41 -36 60 -51 19 -14 44 -34 55
-45 11 -10 42 -36 69 -58 28 -22 61 -51 75 -64 14 -13 42 -35 61 -50 19 -14
37 -29 40 -32 3 -4 48 -42 100 -85 l95 -79 0 -245 c0 -238 1 -245 20 -245 19
0 20 8 25 223 l5 223 47 -36 c47 -37 78 -41 78 -12 0 8 -17 27 -37 43 -21 16
-61 49 -90 74 -28 25 -81 70 -118 100 -37 30 -86 71 -109 91 -22 20 -111 94
-196 164 -85 71 -164 137 -175 146 -38 34 -267 224 -303 252 -20 16 -53 43
-72 61 -42 39 -94 76 -108 76 -6 0 -31 -16 -56 -35z"/>
<path d="M2285 3030 c-20 -21 -34 -28 -50 -24 -18 4 -26 -2 -44 -36 -11 -22
-21 -54 -21 -70 0 -17 -4 -30 -10 -30 -15 0 -12 -27 6 -44 8 -9 23 -15 32 -15
15 1 15 2 0 6 -19 5 -24 28 -9 37 5 4 23 -5 39 -19 27 -23 70 -26 57 -4 -3 4
4 13 15 19 11 6 20 7 20 2 0 -6 8 -12 18 -16 9 -3 24 -9 32 -12 12 -5 11 -3
-1 7 -20 17 -32 83 -29 167 2 72 -10 79 -55 32z m41 -46 c-6 -21 -9 -23 -27
-13 l-21 11 23 24 c25 27 35 18 25 -22z m-56 -44 c0 -5 -11 -10 -25 -10 -14 0
-25 5 -25 10 0 6 11 10 25 10 14 0 25 -4 25 -10z"/>
<path d="M3296 2940 c-11 -47 -11 -73 1 -77 16 -6 28 60 15 84 -10 16 -11 16
-16 -7z"/>
<path d="M2100 2940 c0 -5 9 -10 20 -10 11 0 20 5 20 10 0 6 -9 10 -20 10 -11
0 -20 -4 -20 -10z"/>
<path d="M2094 2895 c-4 -9 -2 -21 5 -28 13 -13 18 -9 23 17 4 24 -20 33 -28
11z"/>
<path d="M2048 2843 c7 -3 16 -2 19 1 4 3 -2 6 -13 5 -11 0 -14 -3 -6 -6z"/>
<path d="M2535 2837 c-32 -11 -142 -139 -125 -145 6 -2 26 2 45 8 26 9 41 23
57 53 11 23 29 54 40 70 11 15 18 26 16 26 -2 -1 -16 -6 -33 -12z"/>
<path d="M2597 2811 c-49 -55 -62 -99 -42 -146 37 -89 9 -145 -72 -145 -37 0
-45 3 -33 11 12 9 11 10 -5 6 -26 -5 -45 15 -45 47 0 18 4 24 15 20 9 -4 18 1
22 11 8 22 -20 45 -54 45 -18 0 -23 -6 -23 -25 0 -16 6 -25 15 -25 10 0 15
-10 15 -30 0 -45 0 -45 -16 -42 -15 3 -13 -21 7 -75 18 -50 112 -36 124 18 4
16 10 29 13 29 11 0 143 29 164 36 16 5 18 2 12 -20 -9 -35 12 -81 42 -95 52
-24 79 -9 107 62 9 20 21 37 26 37 6 0 28 16 50 35 38 35 39 35 107 29 60 -5
72 -4 95 14 37 30 68 152 38 152 -6 0 -68 -29 -137 -65 -153 -79 -174 -81
-200 -21 -33 74 -89 149 -123 163 -48 20 -64 16 -102 -26z"/>
<path d="M1983 2820 c-46 -27 -41 -34 5 -8 46 27 48 28 36 28 -5 0 -24 -9 -41
-20z"/>
<path d="M2094 2825 c-12 -8 -25 -11 -29 -7 -3 4 -6 3 -5 -3 5 -21 -1 -27 -14
-15 -12 9 -19 5 -39 -27 -13 -21 -36 -45 -52 -53 -25 -13 -27 -18 -21 -61 4
-29 2 -50 -4 -54 -19 -12 -10 -25 18 -25 17 0 38 10 52 24 17 19 29 24 51 19
28 -5 29 -4 29 34 0 22 -6 59 -14 81 -12 33 -12 43 -2 51 8 7 17 7 24 1 9 -7
9 -7 2 2 -8 9 -4 17 12 30 28 21 21 24 -8 3z"/>
<path d="M2320 2795 c13 -14 26 -25 28 -25 3 0 -5 11 -18 25 -13 14 -26 25
-28 25 -3 0 5 -11 18 -25z"/>
<path d="M2255 2780 c-16 -11 -25 -20 -20 -20 10 0 64 39 55 40 -3 0 -18 -9
-35 -20z"/>
<path d="M2124 2766 c12 -10 37 -15 60 -15 l41 2 -45 6 c-25 4 -52 10 -60 15
-8 4 -6 0 4 -8z"/>
<path d="M2480 2550 c-9 -6 -10 -10 -3 -10 6 0 15 5 18 10 8 12 4 12 -15 0z"/>
<path d="M2020 2545 c0 -5 5 -17 10 -25 5 -8 10 -10 10 -5 0 6 -5 17 -10 25
-5 8 -10 11 -10 5z"/>
<path d="M2042 2480 c0 -14 2 -19 5 -12 2 6 2 18 0 25 -3 6 -5 1 -5 -13z"/>
<path d="M2235 2479 c-4 -6 -5 -12 -2 -15 2 -3 7 2 10 11 7 17 1 20 -8 4z"/>
<path d="M2152 2460 c0 -14 2 -19 5 -12 2 6 2 18 0 25 -3 6 -5 1 -5 -13z"/>
<path d="M2222 2425 c0 -16 2 -22 5 -12 2 9 2 23 0 30 -3 6 -5 -1 -5 -18z"/>
<path d="M2052 2405 c0 -16 2 -22 5 -12 2 9 2 23 0 30 -3 6 -5 -1 -5 -18z"/>
<path d="M2061 2354 c0 -11 3 -14 6 -6 3 7 2 16 -1 19 -3 4 -6 -2 -5 -13z"/>
<path d="M1860 2346 c0 -2 8 -10 18 -17 15 -13 16 -12 3 4 -13 16 -21 21 -21
13z"/>
<path d="M1653 2334 c3 -4 2 -16 -4 -26 -15 -28 1 -41 34 -26 17 9 27 21 27
36 0 18 -5 22 -32 22 -17 0 -28 -3 -25 -6z"/>
<path d="M1771 2320 c0 -8 4 -22 9 -30 12 -18 12 -2 0 25 -6 13 -9 15 -9 5z"/>
<path d="M2071 2320 c0 -14 28 -72 29 -59 0 4 -7 22 -15 40 -8 19 -14 27 -14
19z"/>
<path d="M1955 2298 c11 -6 31 -20 44 -32 l24 -21 -14 22 c-7 12 -24 26 -36
32 -31 14 -44 14 -18 -1z"/>
<path d="M2152 2285 c0 -16 2 -22 5 -12 2 9 2 23 0 30 -3 6 -5 -1 -5 -18z"/>
<path d="M1480 2281 c-7 -13 -7 -22 0 -26 15 -9 30 4 30 26 0 25 -16 25 -30 0z"/>
<path d="M1216 2154 c-11 -27 -7 -354 4 -354 6 0 10 33 10 80 l0 80 51 0 c43
0 55 5 80 29 49 50 37 135 -24 164 -46 22 -113 22 -121 1z m136 -34 c25 -31
23 -88 -4 -117 -17 -18 -32 -23 -70 -23 l-48 0 0 86 0 87 52 -5 c38 -4 57 -12
70 -28z"/>
<path d="M1670 2110 c0 -23 -4 -30 -20 -30 -11 0 -20 -4 -20 -10 0 -5 9 -10
20 -10 19 0 20 -7 20 -111 0 -121 8 -149 45 -149 34 0 41 18 8 22 l-28 3 -3
118 -3 117 26 0 c14 0 25 5 25 10 0 6 -11 10 -25 10 -21 0 -25 5 -25 30 0 17
-4 30 -10 30 -5 0 -10 -13 -10 -30z"/>
<path d="M3383 2128 c2 -7 10 -13 17 -13 7 0 15 6 18 13 2 7 -5 12 -18 12 -13
0 -20 -5 -17 -12z"/>
<path d="M3480 2111 c0 -21 -6 -31 -22 -36 l-23 -8 23 -4 c21 -4 22 -8 22
-114 0 -121 8 -149 45 -149 34 0 41 18 8 22 l-28 3 -3 118 -3 117 31 0 c18 0
29 4 25 10 -3 6 -17 10 -31 10 -20 0 -24 5 -24 30 0 17 -4 30 -10 30 -5 0 -10
-13 -10 -29z"/>
<path d="M2998 2074 c-14 -13 -9 -183 6 -219 23 -53 80 -72 118 -38 17 15 18
15 18 0 0 -10 5 -17 10 -17 6 0 10 54 10 141 0 91 -4 138 -10 134 -6 -3 -10
-50 -10 -104 0 -84 -3 -102 -21 -125 -25 -31 -59 -34 -85 -5 -15 17 -20 42
-24 131 -3 60 -8 106 -12 102z"/>
<path d="M1467 2059 c-21 -12 -42 -53 -50 -96 -8 -43 18 -129 46 -148 28 -19
76 -19 105 1 30 21 28 38 -2 19 -39 -26 -86 -16 -113 24 -13 19 -23 45 -23 57
0 23 2 24 90 24 l90 0 -6 28 c-8 34 -22 62 -42 85 -17 19 -67 22 -95 6z m92
-35 c12 -15 21 -35 21 -45 0 -17 -8 -19 -76 -19 -74 0 -75 1 -69 23 21 66 87
88 124 41z"/>
<path d="M1995 2035 c-46 -59 -43 -146 6 -209 15 -18 30 -26 53 -26 34 0 76
23 64 36 -4 4 -14 1 -22 -5 -24 -20 -67 -9 -90 22 -31 42 -29 137 4 172 25 27
68 33 88 13 6 -6 15 -8 19 -4 13 13 -28 36 -63 36 -26 0 -39 -8 -59 -35z"/>
<path d="M2186 2044 c-55 -55 -56 -150 -4 -210 48 -55 114 -40 144 32 53 127
-54 263 -140 178z m104 -19 c35 -38 39 -119 8 -165 -31 -46 -79 -53 -103 -17
-38 59 -38 145 1 188 24 27 66 24 94 -6z"/>
<path d="M2372 1935 l1 -140 7 107 c6 115 21 148 65 148 44 0 55 -28 55 -143
0 -65 4 -107 10 -107 6 0 10 38 10 95 0 116 15 155 60 155 42 0 50 -23 50
-144 0 -64 4 -106 10 -106 6 0 10 43 10 109 0 94 -3 112 -21 135 -27 34 -65
34 -101 -1 -22 -21 -28 -23 -28 -10 0 34 -76 51 -101 21 -12 -14 -14 -14 -20
3 -4 10 -7 -45 -7 -122z"/>
<path d="M2680 1935 c0 -83 4 -135 10 -135 6 0 10 38 10 95 0 110 16 155 54
155 46 0 60 -32 64 -146 3 -57 8 -104 13 -104 5 0 9 46 9 103 0 113 13 147 55
147 42 0 55 -34 55 -147 0 -62 4 -103 10 -103 16 0 13 196 -5 229 -25 48 -84
57 -111 16 l-16 -25 -20 25 c-23 29 -63 33 -90 8 -17 -15 -18 -15 -18 0 0 10
-4 17 -10 17 -6 0 -10 -52 -10 -135z"/>
<path d="M3190 1935 c0 -83 4 -135 10 -135 6 0 10 40 10 100 0 115 14 150 59
150 56 0 71 -35 71 -161 0 -58 4 -89 11 -89 7 0 10 34 7 104 -2 87 -6 109 -24
133 -26 34 -77 43 -105 17 -17 -16 -19 -16 -19 -1 0 10 -4 17 -10 17 -6 0 -10
-52 -10 -135z"/>
<path d="M3390 1935 c0 -83 4 -135 10 -135 6 0 10 52 10 135 0 83 -4 135 -10
135 -6 0 -10 -52 -10 -135z"/>
<path d="M3626 1938 c40 -118 44 -137 34 -169 -12 -45 -12 -49 0 -49 5 0 14
19 21 43 6 23 31 100 55 170 49 143 47 137 35 137 -9 0 -70 -165 -81 -219 -4
-18 -16 7 -46 95 -23 65 -46 120 -52 122 -6 2 9 -57 34 -130z"/>
</g>
</svg>
