<?xml version="1.0" standalone="no"?>
<!DOCTYPE svg PUBLIC "-//W3C//DTD SVG 20010904//EN"
 "http://www.w3.org/TR/2001/REC-SVG-20010904/DTD/svg10.dtd">
<svg version="1.0" xmlns="http://www.w3.org/2000/svg"
 width="1042.000000pt" height="1042.000000pt" viewBox="0 0 1042.000000 1042.000000"
 preserveAspectRatio="xMidYMid meet">

<g transform="translate(0.000000,1042.000000) scale(0.100000,-0.100000)"
fill="#000000" stroke="none">
<path d="M3920 6710 c-690 -566 -1263 -1040 -1273 -1053 -15 -20 -16 -27 -6
-50 12 -26 25 -32 59 -27 8 1 68 46 135 101 l120 99 5 -477 c3 -263 9 -484 13
-490 14 -21 64 -15 81 9 14 20 16 83 16 494 0 463 0 472 -21 498 l-21 27 24
18 c12 10 500 411 1083 889 921 757 1062 870 1077 859 10 -7 494 -410 1076
-897 870 -727 1058 -888 1051 -902 -5 -9 -9 -233 -9 -497 0 -519 -1 -511 53
-511 54 1 52 -16 57 481 l5 461 90 -76 c50 -42 101 -79 114 -83 33 -8 55 8 59
44 3 29 -41 67 -970 844 -535 447 -1096 916 -1245 1041 -180 150 -280 228
-295 228 -16 0 -432 -336 -1278 -1030z"/>
<path d="M4762 6314 l-71 -65 -30 15 c-45 24 -59 20 -66 -16 -4 -18 -23 -60
-41 -94 -27 -49 -34 -72 -34 -116 0 -47 -3 -56 -20 -61 -24 -6 -27 -45 -5 -53
39 -15 -6 -61 -47 -48 -14 4 -18 2 -14 -5 10 -16 48 -14 73 4 18 13 22 13 33
0 13 -16 65 -21 74 -6 3 4 -5 6 -17 4 -12 -2 -31 2 -41 10 -17 13 -18 17 -5
45 8 18 17 32 21 32 4 0 34 -25 66 -55 64 -59 76 -64 103 -39 22 19 34 13 113
-55 26 -23 50 -41 54 -41 14 0 -66 73 -106 97 -35 21 -41 29 -36 47 4 11 8 23
10 24 7 9 112 -30 146 -53 20 -14 40 -25 44 -25 13 0 -20 31 -48 46 -25 13
-28 18 -22 52 4 25 -2 66 -16 119 -18 67 -20 88 -11 119 17 59 14 150 -5 168
-8 9 -19 16 -23 16 -5 0 -40 -29 -79 -66z m93 -15 c10 -15 -3 -93 -19 -114
-13 -18 -15 -17 -45 4 -17 12 -31 28 -31 34 0 14 67 87 80 87 5 0 12 -5 15
-11z m-125 -164 c17 -20 9 -26 -32 -27 -58 -1 -68 2 -68 16 0 28 79 36 100 11z
m100 -185 c13 -9 13 -10 0 -9 -8 0 -24 4 -35 9 l-20 9 20 0 c11 0 27 -4 35 -9z"/>
<path d="M6865 6120 c-4 -30 -14 -72 -21 -94 -16 -43 -9 -56 32 -56 17 0 23 8
28 38 11 69 7 119 -13 143 l-19 23 -7 -54z"/>
<path d="M4382 6139 c-35 -13 -17 -29 34 -29 46 0 57 12 25 30 -23 12 -28 12
-59 -1z"/>
<path d="M4366 6044 c-10 -26 -7 -59 8 -79 12 -16 16 -17 30 -6 9 7 16 27 16
43 0 17 4 27 10 23 14 -9 13 8 -2 23 -17 17 -55 15 -62 -4z"/>
<path d="M4253 5925 c-58 -16 -134 -53 -173 -84 -38 -31 -19 -25 46 14 68 41
138 64 232 75 l67 7 -60 1 c-33 0 -84 -6 -112 -13z"/>
<path d="M5459 5902 c-60 -47 -90 -84 -123 -150 -41 -81 -43 -126 -11 -202 36
-84 43 -172 18 -219 -32 -62 -63 -76 -161 -76 -59 0 -96 5 -115 15 -27 16 -27
16 26 16 35 0 64 6 81 18 36 23 27 32 -13 12 -16 -9 -50 -16 -76 -16 -61 0
-85 24 -85 86 0 44 1 46 25 40 37 -10 65 9 65 44 0 43 -39 65 -115 65 l-60 0
-3 -36 c-3 -40 17 -69 49 -69 15 0 19 -7 19 -37 0 -21 7 -51 15 -67 13 -24 13
-31 3 -38 -18 -11 -36 -10 -60 3 -20 11 -21 10 -14 -32 12 -78 29 -121 62
-155 27 -29 38 -34 80 -34 70 0 128 31 153 84 12 23 21 52 21 63 0 18 8 22 53
28 92 12 278 55 309 71 29 15 31 15 24 -2 -5 -11 -10 -44 -13 -75 -11 -117 54
-188 174 -189 45 0 54 4 77 31 30 36 52 84 62 135 5 30 14 39 58 61 28 14 77
50 109 81 l59 55 106 -8 c139 -10 187 -8 222 10 69 35 120 149 120 265 0 65
-1 70 -22 70 -12 0 -125 -54 -252 -121 -223 -116 -306 -148 -382 -149 -28 0
-32 4 -44 43 -18 63 -64 148 -137 257 -48 73 -73 101 -96 110 -18 7 -53 21
-79 31 -64 26 -76 24 -129 -19z"/>
<path d="M5326 5918 c-11 -6 -30 -12 -42 -14 -12 -1 -31 -5 -42 -8 -21 -7
-160 -172 -205 -243 l-27 -43 28 0 c45 0 130 29 156 53 13 12 34 49 47 82 13
32 44 88 71 122 47 63 50 72 14 51z"/>
<path d="M4395 5908 c-11 -6 -30 -20 -43 -32 -20 -18 -25 -19 -45 -7 -20 13
-21 13 -8 -3 12 -14 11 -19 -5 -37 l-19 -21 -10 26 -11 25 -31 -24 c-17 -14
-45 -50 -63 -81 -22 -39 -45 -64 -80 -86 -47 -29 -50 -33 -50 -74 0 -24 5 -63
12 -87 10 -40 9 -47 -10 -75 -12 -16 -22 -38 -22 -47 0 -15 8 -17 51 -13 56 6
94 29 124 76 27 42 51 49 79 23 28 -26 38 -26 61 -1 25 28 16 141 -20 243 -26
75 -26 79 -10 97 24 26 29 25 74 -10 47 -38 129 -70 179 -70 46 1 122 27 185
64 73 42 49 42 -32 -1 -124 -65 -236 -57 -330 22 l-33 29 43 38 c45 38 49 46
14 26z"/>
<path d="M4200 5357 c0 -10 13 -51 29 -90 20 -52 32 -105 40 -189 13 -121 48
-275 77 -329 26 -52 27 -25 1 48 -34 93 -54 189 -66 312 -7 65 -19 120 -32
150 -12 25 -28 62 -35 81 -7 19 -13 27 -14 17z"/>
<path d="M4682 5200 c-35 -48 -43 -68 -48 -117 -3 -32 -1 -78 4 -103 9 -41 10
-36 11 51 1 96 1 97 42 158 23 34 40 63 38 65 -2 2 -23 -23 -47 -54z"/>
<path d="M4503 5188 c-15 -28 -18 -67 -21 -241 -3 -138 0 -213 6 -219 21 -21
103 59 101 97 0 6 -6 1 -12 -9 -7 -11 -26 -36 -43 -55 l-32 -35 -7 99 c-11
137 0 326 20 364 8 17 13 31 11 31 -3 0 -13 -15 -23 -32z"/>
<path d="M3681 4861 c-1 -36 34 -121 50 -121 5 0 2 15 -7 33 -10 17 -23 52
-30 77 -12 45 -12 45 -13 11z"/>
<path d="M3886 4877 c9 -24 46 -44 115 -62 92 -24 135 -49 161 -95 13 -22 26
-40 31 -40 11 0 9 7 -12 48 -24 46 -75 76 -169 97 -44 10 -84 26 -102 42 -18
15 -28 19 -24 10z"/>
<path d="M3445 4860 c4 -12 0 -31 -9 -45 -24 -36 -20 -64 10 -77 22 -10 28 -9
47 15 12 14 33 27 47 29 22 3 25 8 28 51 l3 47 -66 0 c-62 0 -66 -1 -60 -20z"/>
<path d="M3113 4786 c-38 -32 -48 -58 -33 -86 26 -48 73 1 68 71 l-3 42 -32
-27z"/>
<path d="M4661 4795 c1 -19 18 -51 18 -35 0 8 -4 22 -9 30 -5 8 -9 11 -9 5z"/>
<path d="M4778 4735 c5 -11 12 -27 15 -35 5 -13 6 -13 6 1 1 8 -6 24 -15 35
-15 19 -15 19 -6 -1z"/>
<path d="M4732 4700 c0 -14 2 -19 5 -12 2 6 2 18 0 25 -3 6 -5 1 -5 -13z"/>
<path d="M4127 4686 c10 -13 20 -20 21 -15 5 12 -17 39 -30 39 -5 0 -1 -11 9
-24z"/>
<path d="M4401 4694 c0 -11 3 -14 6 -6 3 7 2 16 -1 19 -3 4 -6 -2 -5 -13z"/>
<path d="M4458 4683 c5 -21 7 -23 10 -9 2 10 0 22 -6 28 -6 6 -7 0 -4 -19z"/>
<path d="M2536 4498 c-3 -13 -6 -186 -6 -385 0 -356 0 -363 20 -363 19 0 20 7
20 165 l0 165 92 0 c80 0 97 3 134 25 67 39 94 94 94 188 0 86 -10 120 -48
161 -47 50 -96 66 -203 66 -92 0 -97 -1 -103 -22z m251 -44 c47 -35 67 -80 67
-153 1 -77 -20 -123 -74 -158 -28 -20 -46 -23 -121 -23 l-89 0 0 181 0 181 94
-4 c77 -2 100 -7 123 -24z"/>
<path d="M3480 4400 l0 -70 -40 0 c-33 0 -40 -3 -40 -20 0 -17 7 -20 40 -20
l40 0 0 -219 c0 -227 4 -258 42 -298 25 -26 74 -30 104 -9 26 19 11 31 -39 31
-64 0 -67 12 -67 273 l0 222 55 0 c48 0 55 2 55 20 0 18 -7 20 -55 20 l-55 0
0 70 c0 63 -2 70 -20 70 -18 0 -20 -7 -20 -70z"/>
<path d="M7060 4456 c-27 -33 18 -72 48 -42 13 13 14 20 6 34 -15 23 -38 26
-54 8z"/>
<path d="M7250 4401 l0 -70 -37 -3 c-27 -2 -39 -8 -41 -20 -3 -15 4 -18 37
-18 l41 0 0 -214 c0 -221 6 -262 43 -303 23 -26 73 -31 102 -10 28 21 10 36
-35 30 -63 -9 -70 18 -70 282 l0 215 61 0 c52 0 60 2 57 18 -2 13 -15 18 -61
20 l-57 3 0 69 c0 63 -2 70 -20 70 -18 0 -20 -7 -20 -69z"/>
<path d="M6247 4324 c-11 -12 -8 -386 4 -429 22 -82 93 -145 162 -145 44 0 70
12 110 48 l27 26 0 -37 c0 -30 4 -37 20 -37 20 0 20 7 20 291 0 271 -1 290
-17 287 -16 -3 -18 -23 -23 -213 -5 -230 -10 -248 -70 -299 -55 -46 -128 -28
-172 41 -22 36 -23 49 -28 252 -5 202 -10 237 -33 215z"/>
<path d="M3074 4302 c-81 -51 -128 -150 -128 -267 1 -88 24 -160 70 -214 46
-53 81 -71 141 -71 78 1 184 63 156 91 -8 8 -22 4 -48 -17 -52 -40 -136 -45
-185 -12 -42 28 -86 112 -94 180 l-6 48 183 2 182 3 -3 45 c-4 64 -52 161 -97
195 -48 38 -126 45 -171 17z m151 -53 c41 -37 61 -70 74 -128 l9 -41 -160 0
-160 0 7 38 c9 48 47 115 82 141 44 32 104 28 148 -10z"/>
<path d="M4225 4306 c-78 -34 -135 -148 -135 -271 0 -173 99 -299 222 -282 38
5 108 49 108 68 0 22 -32 19 -61 -5 -63 -54 -150 -24 -198 69 -23 44 -26 62
-26 150 0 88 3 106 26 150 48 92 128 120 200 71 23 -16 40 -21 49 -16 12 7 11
12 -4 29 -43 47 -121 63 -181 37z"/>
<path d="M4598 4297 c-64 -39 -99 -97 -119 -196 -13 -70 -2 -167 28 -225 20
-40 70 -94 105 -112 72 -38 172 4 220 92 74 136 55 316 -43 414 -57 56 -127
66 -191 27z m155 -47 c106 -92 109 -327 7 -425 -21 -20 -42 -29 -78 -33 -44
-4 -52 -1 -84 27 -110 96 -110 335 -1 431 26 24 43 30 78 30 35 0 52 -6 78
-30z"/>
<path d="M4930 4036 c0 -275 1 -286 19 -286 18 0 19 11 23 208 3 220 8 241 61
300 31 33 90 30 127 -6 43 -43 50 -88 50 -304 0 -188 1 -198 19 -198 18 0 19
11 23 203 3 167 7 209 22 245 47 110 159 110 200 -1 12 -32 16 -90 18 -242 3
-181 5 -200 21 -203 16 -3 17 12 17 200 0 231 -8 273 -65 328 -24 24 -45 33
-77 37 -54 5 -83 -10 -124 -64 l-32 -42 -21 34 c-52 89 -163 100 -221 21 -15
-20 -15 -20 -20 14 -3 23 -11 36 -22 38 -17 3 -18 -16 -18 -282z"/>
<path d="M5587 4313 c-4 -3 -7 -132 -7 -285 0 -266 1 -278 19 -278 17 0 19 12
23 198 4 179 6 202 28 250 27 62 51 82 100 82 26 0 43 -7 62 -27 46 -48 51
-75 56 -295 4 -196 5 -208 23 -208 18 0 19 10 19 193 0 212 7 251 52 302 63
72 152 30 177 -85 6 -28 11 -132 11 -230 0 -176 0 -180 21 -180 20 0 21 3 17
213 -3 205 -4 214 -29 262 -60 118 -183 127 -249 20 l-23 -38 -18 36 c-33 63
-115 95 -172 66 -12 -6 -34 -23 -49 -37 l-28 -26 0 37 c0 35 -15 49 -33 30z"/>
<path d="M6647 4193 c-4 -71 -7 -199 -7 -285 0 -148 1 -158 19 -158 17 0 19
12 23 193 4 174 7 197 28 245 29 66 60 92 112 92 50 0 84 -23 111 -74 20 -38
22 -58 25 -248 3 -198 4 -208 23 -208 18 0 19 9 19 188 0 208 -10 267 -57 323
-62 74 -165 78 -227 10 -27 -30 -36 -26 -36 14 0 23 -5 35 -13 35 -11 0 -15
-31 -20 -127z"/>
<path d="M7070 4035 c0 -247 2 -285 15 -285 17 0 18 9 17 240 -1 326 -1 330
-17 330 -13 0 -15 -38 -15 -285z"/>
<path d="M7483 4312 c-9 -5 12 -82 78 -282 l90 -275 -25 -81 c-31 -96 -31 -94
-8 -94 15 0 39 62 135 353 64 194 117 359 117 365 0 7 -4 12 -10 12 -5 0 -13
1 -17 3 -3 1 -43 -110 -88 -248 l-81 -250 -84 253 c-47 138 -87 252 -90 252
-3 0 -10 -4 -17 -8z"/>
</g>
</svg>
